<svg width="18" height="18" viewBox="0 0 18 18" fill="none" xmlns="http://www.w3.org/2000/svg">
<path fill-rule="evenodd" clip-rule="evenodd" d="M6.24316 3.5235C4.89697 3.5235 3.80566 4.6148 3.80566 5.961V11.961C3.80566 13.3072 4.89697 14.3985 6.24316 14.3985H12.2432C13.5894 14.3985 14.6807 13.3072 14.6807 11.961V5.961C14.6807 4.6148 13.5894 3.5235 12.2432 3.5235H6.24316ZM2.68066 5.961C2.68066 3.99348 4.27565 2.3985 6.24316 2.3985H12.2432C14.2107 2.3985 15.8057 3.99348 15.8057 5.961V11.961C15.8057 13.9285 14.2107 15.5235 12.2432 15.5235H6.24316C4.27565 15.5235 2.68066 13.9285 2.68066 11.961V5.961ZM9.24317 7.2735C8.31118 7.2735 7.55566 8.02902 7.55566 8.961C7.55566 9.89298 8.31118 10.6485 9.24317 10.6485C10.1751 10.6485 10.9307 9.89298 10.9307 8.961C10.9307 8.02902 10.1751 7.2735 9.24317 7.2735ZM6.43066 8.961C6.43066 7.4077 7.68986 6.1485 9.24317 6.1485C10.7965 6.1485 12.0557 7.4077 12.0557 8.961C12.0557 10.5143 10.7965 11.7735 9.24317 11.7735C7.68986 11.7735 6.43066 10.5143 6.43066 8.961ZM13.1807 5.586C13.1807 5.27534 12.9288 5.0235 12.6182 5.0235C12.3075 5.0235 12.0557 5.27534 12.0557 5.586V5.587C12.0557 5.89766 12.3075 6.1495 12.6182 6.1495C12.9288 6.1495 13.1807 5.89766 13.1807 5.587V5.586Z" fill="#121212"/>
</svg>
