<svg width="17" height="17" viewBox="0 0 17 17" fill="none" xmlns="http://www.w3.org/2000/svg">
<path d="M11.0577 11.582C11.1512 11.3341 11.3466 11.1389 11.5947 11.0455C13.611 8.73676 13.3712 5.23014 11.0596 3.21552C8.74698 1.19997 5.2383 1.43954 3.22196 3.74923C1.20562 6.05985 1.4454 9.56555 3.75706 11.5792C5.35957 12.9769 7.62032 13.3358 9.57833 12.5061C10.1171 12.2776 10.6161 11.9668 11.0577 11.582ZM13.2583 11.9354L16.5059 15.1802C16.8725 15.5354 16.8836 16.1209 16.5281 16.4881C16.1726 16.8544 15.5866 16.8655 15.2191 16.5103C15.2107 16.5029 15.2033 16.4946 15.1969 16.4881L11.9502 13.2433C8.72014 15.7509 4.06719 15.1673 1.55742 11.9391C-0.951433 8.71178 -0.367269 4.0628 2.86368 1.55609C6.09371 -0.950623 10.7467 -0.366957 13.2555 2.86125C15.3302 5.53076 15.332 9.26492 13.2583 11.9354Z" fill="#212121"/>
</svg>
