<svg width="18" height="18" viewBox="0 0 18 18" fill="none" xmlns="http://www.w3.org/2000/svg">
<path d="M6.91528 8.922C6.32194 8.922 5.74192 9.09794 5.24857 9.42759C4.75523 9.75723 4.37071 10.2258 4.14365 10.7739C3.91658 11.3221 3.85717 11.9253 3.97293 12.5073C4.08868 13.0892 4.37441 13.6238 4.79396 14.0433C5.21352 14.4629 5.74807 14.7486 6.33001 14.8644C6.91196 14.9801 7.51516 14.9207 8.06334 14.6936C8.61151 14.4666 9.08005 14.0821 9.40969 13.5887C9.73934 13.0954 9.91529 12.5153 9.91529 11.922V2.922C9.91529 3.91656 10.3104 4.87039 11.0136 5.57365C11.7169 6.27691 12.6707 6.672 13.6653 6.672" stroke="#121212" stroke-width="1.125" stroke-linecap="round" stroke-linejoin="round"/>
</svg>
