<svg width="31" height="20" viewBox="0 0 31 20" fill="none" xmlns="http://www.w3.org/2000/svg">
<path d="M20 6H30C30.2652 6 30.5196 6.10536 30.7071 6.29289C30.8946 6.48043 31 6.73478 31 7C31 7.26522 30.8946 7.51957 30.7071 7.70711C30.5196 7.89464 30.2652 8 30 8H20C19.7348 8 19.4804 7.89464 19.2929 7.70711C19.1054 7.51957 19 7.26522 19 7C19 6.73478 19.1054 6.48043 19.2929 6.29289C19.4804 6.10536 19.7348 6 20 6ZM18 19C18 19.2652 17.8946 19.5196 17.7071 19.7071C17.5196 19.8946 17.2652 20 17 20C16.7348 20 16.4804 19.8946 16.2929 19.7071C16.1054 19.5196 16 19.2652 16 19V17C16 16.2044 15.6839 15.4413 15.1213 14.8787C14.5587 14.3161 13.7956 14 13 14H5C4.20435 14 3.44129 14.3161 2.87868 14.8787C2.31607 15.4413 2 16.2044 2 17V19C2 19.2652 1.89464 19.5196 1.70711 19.7071C1.51957 19.8946 1.26522 20 1 20C0.734784 20 0.48043 19.8946 0.292893 19.7071C0.105357 19.5196 0 19.2652 0 19V17C0 15.6739 0.526784 14.4021 1.46447 13.4645C2.40215 12.5268 3.67392 12 5 12H13C14.3261 12 15.5979 12.5268 16.5355 13.4645C17.4732 14.4021 18 15.6739 18 17V19ZM9 10C7.67392 10 6.40215 9.47322 5.46447 8.53553C4.52678 7.59785 4 6.32608 4 5C4 3.67392 4.52678 2.40215 5.46447 1.46447C6.40215 0.526784 7.67392 0 9 0C10.3261 0 11.5979 0.526784 12.5355 1.46447C13.4732 2.40215 14 3.67392 14 5C14 6.32608 13.4732 7.59785 12.5355 8.53553C11.5979 9.47322 10.3261 10 9 10ZM9 8C9.39397 8 9.78407 7.9224 10.1481 7.77164C10.512 7.62087 10.8427 7.3999 11.1213 7.12132C11.3999 6.84274 11.6209 6.51203 11.7716 6.14805C11.9224 5.78407 12 5.39397 12 5C12 4.60603 11.9224 4.21593 11.7716 3.85195C11.6209 3.48797 11.3999 3.15726 11.1213 2.87868C10.8427 2.6001 10.512 2.37913 10.1481 2.22836C9.78407 2.0776 9.39397 2 9 2C8.20435 2 7.44129 2.31607 6.87868 2.87868C6.31607 3.44129 6 4.20435 6 5C6 5.79565 6.31607 6.55871 6.87868 7.12132C7.44129 7.68393 8.20435 8 9 8ZM22 11H30C30.2652 11 30.5196 11.1054 30.7071 11.2929C30.8946 11.4804 31 11.7348 31 12C31 12.2652 30.8946 12.5196 30.7071 12.7071C30.5196 12.8946 30.2652 13 30 13H22C21.7348 13 21.4804 12.8946 21.2929 12.7071C21.1054 12.5196 21 12.2652 21 12C21 11.7348 21.1054 11.4804 21.2929 11.2929C21.4804 11.1054 21.7348 11 22 11Z" fill="#212121"/>
</svg>
