<svg width="17" height="12" viewBox="0 0 17 12" fill="none" xmlns="http://www.w3.org/2000/svg">
<path d="M8.67065 0.167002L8.67067 0.667002H8.67081L8.67143 0.667002L8.67403 0.667003L8.68454 0.667012L8.7262 0.667082L8.88634 0.667649C9.0251 0.668297 9.22496 0.669595 9.46876 0.672192C9.95657 0.677389 10.6194 0.687779 11.3204 0.708533C12.0221 0.72931 12.7582 0.760362 13.3937 0.80659C14.0412 0.853695 14.5424 0.914025 14.8027 0.983299C15.0511 1.05307 15.2773 1.18551 15.4597 1.36792C15.6376 1.54583 15.768 1.76542 15.8391 2.00653C16.0619 3.2448 16.1694 4.50111 16.16 5.75928L16.1599 5.75928L16.16 5.76635C16.1684 7.01984 16.0612 8.27129 15.8391 9.50478C15.768 9.7459 15.6376 9.9655 15.4597 10.1434C15.2774 10.3257 15.0514 10.4581 14.8033 10.5279C14.5388 10.5976 14.0355 10.658 13.388 10.7051C12.7519 10.7515 12.0162 10.7826 11.3153 10.8034C10.6152 10.8242 9.95362 10.8346 9.46686 10.8398C9.22358 10.8424 9.0242 10.8437 8.88578 10.8444L8.72605 10.8449L8.6845 10.845L8.67402 10.845L8.67143 10.845H8.67081H8.67067L8.67065 11.345L8.67062 10.845H8.67048H8.66986L8.66727 10.845L8.65675 10.845L8.61508 10.8449L8.45491 10.8444C8.31611 10.8437 8.11621 10.8424 7.87236 10.8398C7.38445 10.8346 6.72153 10.8242 6.02047 10.8034C5.31861 10.7826 4.58254 10.7515 3.94712 10.7051C3.29943 10.6579 2.79852 10.5975 2.53874 10.5281C2.29033 10.4583 2.06403 10.3259 1.88157 10.1434C1.70348 9.96533 1.57303 9.74547 1.50202 9.50407C1.2758 8.27048 1.16277 7.01865 1.16666 5.76455L1.16664 5.76114C1.16196 4.50219 1.27423 3.24554 1.50198 2.00739C1.57298 1.76594 1.70345 1.54604 1.88157 1.36792C2.06413 1.18536 2.29058 1.05286 2.53914 0.983133C2.80207 0.912373 3.30483 0.851194 3.95316 0.803763C4.58904 0.757243 5.32451 0.726401 6.02542 0.706041C6.7255 0.685705 7.38703 0.675938 7.8738 0.67126C8.11708 0.668922 8.31646 0.667858 8.45488 0.667378L8.6146 0.66701L8.65614 0.666993L8.66662 0.666998L8.6692 0.667L8.66982 0.667001L8.66996 0.667001L8.67065 0.167002ZM8.67065 0.167002V0.667002H8.66998L8.67065 0.167002ZM6.56931 8.157V9.01997L7.31799 8.59078L11.494 6.19678L12.2495 5.76366L11.4946 5.32955L7.31856 2.92822L6.56931 2.49738V3.36167V8.157Z" stroke="#121212"/>
</svg>
